<?xml version="1.0" encoding="utf-8"?>
<!-- Generator: Adobe Illustrator 24.3.0, SVG Export Plug-In . SVG Version: 6.00 Build 0)  -->
<svg version="1.1" id="Layer_1" xmlns="http://www.w3.org/2000/svg" xmlns:xlink="http://www.w3.org/1999/xlink" x="0px" y="0px"
	 viewBox="0 0 64 64" enable-background="new 0 0 64 64" xml:space="preserve">
<path fill="#9FBEF4" d="M50,16h-0.6c-1.4-4.1-5.3-7-9.9-7c-4.2,0-7.9,2.5-9.5,6.1c-1.9-1.9-4.5-3.1-7.5-3.1C16.7,12,12,16.7,12,22.5
	V26H9c-3.3,0-6,2.7-6,6s2.7,6,6,6h8c0-8.3,6.7-15,15-15s15,6.7,15,15h3c6.1,0,11-4.9,11-11S56.1,16,50,16z"/>
<polygon fill="#E8E8E8" points="21,43 21,54 31,43 "/>
<path fill="#E8E8E8" d="M32,23c-8.3,0-15,6.7-15,15h6c0-5,4-9,9-9s9,4,9,9c0,5-4,9-9,9c-1.4,0-2.7-0.3-3.8-0.9L24,50.7
	c2.3,1.5,5,2.3,8,2.3c8.3,0,15-6.7,15-15C47,29.7,40.3,23,32,23z"/>
<path d="M50,20v2c2.2,0,4,1.8,4,4h2C56,22.7,53.3,20,50,20z"/>
<rect x="54" y="28" width="2" height="2"/>
<path d="M50.1,15c-1.8-4.2-6-7-10.6-7c-4,0-7.7,2.1-9.8,5.5c-2-1.6-4.5-2.5-7.2-2.5C16.2,11,11,16.2,11,22.5V25H9c-3.9,0-7,3.1-7,7
	s3.1,7,7,7h14c0.6,0,1-0.4,1-1c0-4.4,3.6-8,8-8s8,3.6,8,8s-3.6,8-8,8c-0.7,0-1.4-0.1-2.1-0.3l1.8-2c0.3-0.3,0.3-0.7,0.2-1.1
	C31.8,42.2,31.4,42,31,42H21c-0.6,0-1,0.4-1,1v11c0,0.4,0.3,0.8,0.6,0.9c0.1,0,0.2,0.1,0.4,0.1c0.3,0,0.5-0.1,0.7-0.3l2.5-2.7
	c2.4,1.3,5.1,2,7.8,2c8.5,0,15.4-6.6,15.9-15H50c6.6,0,12-5.4,12-12C62,20.4,56.7,15,50.1,15z M22,44h6.7L22,51.4V44z M32,52
	c-2.2,0-4.4-0.5-6.4-1.6l2.8-3.1c1.1,0.4,2.3,0.7,3.6,0.7c5.5,0,10-4.5,10-10s-4.5-10-10-10c-5.2,0-9.4,4-10,9h-4
	c0.5-7.3,6.6-13,13.9-13c7.7,0,14,6.3,14,14S39.7,52,32,52z M50,37h-2.1c-0.5-8.4-7.5-15-15.9-15s-15.4,6.6-15.9,15H9
	c-2.8,0-5-2.2-5-5s2.2-5,5-5h3c0.6,0,1-0.4,1-1v-3.5c0-5.2,4.3-9.5,9.5-9.5c2.6,0,5,1,6.8,2.8c0.2,0.2,0.6,0.3,0.9,0.3
	c0.3-0.1,0.6-0.3,0.7-0.6c1.5-3.4,4.9-5.5,8.6-5.5c4,0,7.6,2.5,8.9,6.3c0.1,0.4,0.5,0.7,0.9,0.7H50c5.5,0,10,4.5,10,10
	S55.5,37,50,37z"/>
</svg>
